<?xml version="1.0" encoding="UTF-8" standalone="no"?>
<!-- Created with Inkscape (http://www.inkscape.org/) -->

<svg
   xmlns:dc="http://purl.org/dc/elements/1.1/"
   xmlns:cc="http://creativecommons.org/ns#"
   xmlns:rdf="http://www.w3.org/1999/02/22-rdf-syntax-ns#"
   xmlns:svg="http://www.w3.org/2000/svg"
   xmlns="http://www.w3.org/2000/svg"
   xmlns:sodipodi="http://sodipodi.sourceforge.net/DTD/sodipodi-0.dtd"
   xmlns:inkscape="http://www.inkscape.org/namespaces/inkscape"
   width="64"
   height="64"
   id="svg3541"
   version="1.1"
   inkscape:version="0.91 r13725"
   viewBox="0 0 64 64"
   sodipodi:docname="omega.svg">
  <defs
     id="defs3543" />
  <sodipodi:namedview
     id="base"
     pagecolor="#ffffff"
     bordercolor="#666666"
     borderopacity="1.0"
     inkscape:pageopacity="0.0"
     inkscape:pageshadow="2"
     inkscape:zoom="11"
     inkscape:cx="32"
     inkscape:cy="42.983665"
     inkscape:current-layer="layer1"
     showgrid="true"
     inkscape:document-units="px"
     inkscape:grid-bbox="true"
     inkscape:window-width="1920"
     inkscape:window-height="1047"
     inkscape:window-x="0"
     inkscape:window-y="0"
     inkscape:window-maximized="1">
    <inkscape:grid
       type="xygrid"
       id="grid3549" />
  </sodipodi:namedview>
  <metadata
     id="metadata3546">
    <rdf:RDF>
      <cc:Work
         rdf:about="">
        <dc:format>image/svg+xml</dc:format>
        <dc:type
           rdf:resource="http://purl.org/dc/dcmitype/StillImage" />
      </cc:Work>
    </rdf:RDF>
  </metadata>
  <g
     id="layer1"
     inkscape:label="Layer 1"
     inkscape:groupmode="layer">
    <path
       style="fill:#ff0000;fill-rule:evenodd;stroke:#000000;stroke-width:0.19512118px;stroke-linecap:butt;stroke-linejoin:miter;stroke-opacity:1"
       d="m 31.451793,3.3973607 a 17.699913,17.190881 0 0 0 -17.699901,17.1908723 17.699913,17.190881 0 0 0 0.63573,4.557993 l -0.221577,0.0022 0.723896,1.479392 a 17.699913,17.190881 0 0 0 1.212683,2.478058 L 31.80446,61.19097 46.814494,29.100247 a 17.699913,17.190881 0 0 0 1.308199,-2.79691 l 0.695667,-1.487285 -0.233565,0.0022 A 17.699913,17.190881 0 0 0 49.151692,20.588145 17.699913,17.190881 0 0 0 31.451793,3.3972724 Z m -0.300078,3.107893 A 13.499933,13.111689 0 0 1 44.651699,19.61699 13.499933,13.111689 0 0 1 31.151715,32.728727 13.499933,13.111689 0 0 1 17.651732,19.61699 13.499933,13.111689 0 0 1 31.151715,6.5052537 Z"
       id="path3458"
       inkscape:connector-curvature="0" />
    <text
       xml:space="preserve"
       style="font-style:normal;font-weight:normal;font-size:30.26053047px;line-height:125%;font-family:sans-serif;letter-spacing:0px;word-spacing:0px;fill:#000000;fill-opacity:1;stroke:none;stroke-width:1px;stroke-linecap:butt;stroke-linejoin:miter;stroke-opacity:1"
       x="19.140055"
       y="27.069414"
       id="text3572"
       sodipodi:linespacing="125%"
       transform="scale(1.0125038,0.9876506)"><tspan
         sodipodi:role="line"
         id="tspan3574"
         x="19.140055"
         y="27.069414">ω</tspan></text>
  </g>
</svg>
