<?xml version="1.0" encoding="UTF-8" standalone="no"?>
<!-- Created with Inkscape (http://www.inkscape.org/) -->

<svg
   xmlns:dc="http://purl.org/dc/elements/1.1/"
   xmlns:cc="http://creativecommons.org/ns#"
   xmlns:rdf="http://www.w3.org/1999/02/22-rdf-syntax-ns#"
   xmlns:svg="http://www.w3.org/2000/svg"
   xmlns="http://www.w3.org/2000/svg"
   xmlns:sodipodi="http://sodipodi.sourceforge.net/DTD/sodipodi-0.dtd"
   xmlns:inkscape="http://www.inkscape.org/namespaces/inkscape"
   width="64"
   height="64"
   id="svg4932"
   version="1.1"
   inkscape:version="0.91 r13725"
   viewBox="0 0 64 64"
   sodipodi:docname="vaievem-finder.svg">
  <defs
     id="defs4934" />
  <sodipodi:namedview
     id="base"
     pagecolor="#ffffff"
     bordercolor="#666666"
     borderopacity="1.0"
     inkscape:pageopacity="0.0"
     inkscape:pageshadow="2"
     inkscape:zoom="7.7781746"
     inkscape:cx="31.485741"
     inkscape:cy="19.736062"
     inkscape:current-layer="layer1"
     showgrid="true"
     inkscape:document-units="px"
     inkscape:grid-bbox="true"
     inkscape:window-width="1920"
     inkscape:window-height="1047"
     inkscape:window-x="0"
     inkscape:window-y="0"
     inkscape:window-maximized="1" />
  <metadata
     id="metadata4937">
    <rdf:RDF>
      <cc:Work
         rdf:about="">
        <dc:format>image/svg+xml</dc:format>
        <dc:type
           rdf:resource="http://purl.org/dc/dcmitype/StillImage" />
        <dc:title></dc:title>
      </cc:Work>
    </rdf:RDF>
  </metadata>
  <g
     id="layer1"
     inkscape:label="Layer 1"
     inkscape:groupmode="layer">
    <path
       style="fill:#82bb31;fill-opacity:1;fill-rule:evenodd;stroke:#000000;stroke-width:0.10767286px;stroke-linecap:butt;stroke-linejoin:miter;stroke-opacity:1"
       d="m 24.537194,31.245611 c -0.06366,7.9111 2.572011,11.342537 7.129333,11.896843 4.965063,0.603899 9.102628,-6.703295 7.956841,-11.594892 -1.212732,-5.177383 -5.283345,-8.33383 -7.383951,-8.515 -1.753374,-0.151223 -6.238164,0.36234 -7.702223,8.213049 z"
       id="path4888"
       inkscape:connector-curvature="0"
       sodipodi:nodetypes="csssc" />
    <path
       style="fill:#004b80;fill-opacity:1;fill-rule:evenodd;stroke:#000000;stroke-width:0.15625;stroke-linecap:butt;stroke-linejoin:miter;stroke-miterlimit:4;stroke-dasharray:none;stroke-opacity:1"
       d="m 36.909638,51.344181 c 13.238337,0 11.031937,-4.412736 12.43603,-8.82554 1.404165,-4.412733 0.403202,-22.465003 0.198402,-26.075449 -0.198402,-3.610444 -2.407039,-7.8226352 -7.421505,-7.6220532 -5.0144,0.200576 -5.215359,0.200576 -5.215359,0.200576 l 2.206719,-5.215091 -3.811199,0 -5.0144,8.6249552 5.0144,10.029019 4.4128,-0.40128 -3.047679,-6.362035 c 0,0 4.737278,-1.485542 5.105919,-0.07091 0.422398,1.631064 0.352002,-2.978465 0.499199,4.680447 0.140803,7.658918 0.140803,14.466843 0.140803,14.466843 0,0 0.2816,3.900351 0.0704,5.318718 -0.211199,1.418307 0.0704,3.971268 -2.056319,4.184067 -2.127362,0.212482 -3.404162,0.212482 -3.404162,0.212482 z"
       id="path4200"
       inkscape:connector-curvature="0"
       sodipodi:nodetypes="cssscccccccsscsscc" />
    <path
       style="fill:#82bb31;fill-opacity:1;fill-rule:evenodd;stroke:#000000;stroke-width:0.15625;stroke-linecap:butt;stroke-linejoin:miter;stroke-miterlimit:4;stroke-dasharray:none;stroke-opacity:1"
       d="m 27.225863,14.107883 c -13.238339,0 -11.031939,4.412768 -12.436041,8.825536 -1.404164,4.412768 -0.403198,22.46501 -0.198399,26.07545 0.198399,3.610435 2.40704,7.82264 7.42151,7.622055 5.014399,-0.20032 5.215358,-0.20032 5.215358,-0.20032 l -2.206718,5.21511 3.811198,0 5.014405,-8.624957 -5.014405,-10.029016 -4.412799,0.401278 3.047683,6.362048 c 0,0 -4.737282,1.485567 -5.105924,0.07104 -0.422397,-1.631038 -0.351996,2.978494 -0.499198,-4.680448 -0.140798,-7.658913 -0.140798,-14.466842 -0.140798,-14.466842 0,0 -0.2816,-3.90037 -0.0704,-5.318688 0.211199,-1.418315 -0.0704,-3.97129 2.056318,-4.184037 2.127362,-0.212736 3.404161,-0.212736 3.404161,-0.212736 z"
       id="path4200-3"
       inkscape:connector-curvature="0"
       sodipodi:nodetypes="cssscccccccsscsscc" />
    <path
       style="opacity:1;fill:#fafcfc;fill-opacity:1;fill-rule:evenodd;stroke:#000000;stroke-width:0.10767286px;stroke-linecap:butt;stroke-linejoin:miter;stroke-opacity:1"
       d="m 30.138812,33.902774 6.492778,-0.06039 0,-3.140283 c 0,0 -0.318268,-2.475993 -4.455828,-2.475993 -4.13756,0 -4.71045,1.992872 -4.774106,3.140284 -0.06366,1.147411 -0.763853,6.099397 1.655026,6.401345 2.418878,0.301954 4.774101,0.241562 4.774101,0.241562 0,0 2.609845,-0.241562 2.800807,-1.75131 0.190971,-1.509755 0.127311,-1.570145 0.127311,-1.570145 l -2.482534,0.06039 c 0,0 0.190966,1.207803 -1.718676,1.087023 -1.909644,-0.120779 -2.418879,0.362339 -2.418879,-1.932483 z"
       id="path4892"
       inkscape:connector-curvature="0" />
    <path
       style="fill:#82bb31;fill-opacity:1;fill-rule:evenodd;stroke:#000000;stroke-width:0.10767286px;stroke-linecap:butt;stroke-linejoin:miter;stroke-opacity:1"
       d="m 30.138812,32.211852 4.010249,0 c 0,0 0.254617,-1.932481 -1.909644,-1.872091 -2.16426,0.06039 -1.973299,1.026631 -2.100605,1.872091 z"
       id="path4890"
       inkscape:connector-curvature="0" />
  </g>
</svg>
