<?xml version="1.0" encoding="UTF-8" standalone="no"?>
<!-- Created with Inkscape (http://www.inkscape.org/) -->

<svg
   xmlns:dc="http://purl.org/dc/elements/1.1/"
   xmlns:cc="http://creativecommons.org/ns#"
   xmlns:rdf="http://www.w3.org/1999/02/22-rdf-syntax-ns#"
   xmlns:svg="http://www.w3.org/2000/svg"
   xmlns="http://www.w3.org/2000/svg"
   xmlns:sodipodi="http://sodipodi.sourceforge.net/DTD/sodipodi-0.dtd"
   xmlns:inkscape="http://www.inkscape.org/namespaces/inkscape"
   width="64"
   height="64"
   id="svg4932"
   version="1.1"
   inkscape:version="0.91 r13725"
   viewBox="0 0 64 64"
   sodipodi:docname="vaievem-finder.svg">
  <defs
     id="defs4934" />
  <sodipodi:namedview
     id="base"
     pagecolor="#ffffff"
     bordercolor="#666666"
     borderopacity="1.0"
     inkscape:pageopacity="0.0"
     inkscape:pageshadow="2"
     inkscape:zoom="7.7781746"
     inkscape:cx="31.485741"
     inkscape:cy="19.736062"
     inkscape:current-layer="layer1"
     showgrid="true"
     inkscape:document-units="px"
     inkscape:grid-bbox="true"
     inkscape:window-width="1920"
     inkscape:window-height="1047"
     inkscape:window-x="0"
     inkscape:window-y="0"
     inkscape:window-maximized="1" />
  <metadata
     id="metadata4937">
    <rdf:RDF>
      <cc:Work
         rdf:about="">
        <dc:format>image/svg+xml</dc:format>
        <dc:type
           rdf:resource="http://purl.org/dc/dcmitype/StillImage" />
        <dc:title />
      </cc:Work>
    </rdf:RDF>
  </metadata>
  <g
     id="layer1"
     inkscape:label="Layer 1"
     inkscape:groupmode="layer">
    <path
       inkscape:connector-curvature="0"
       style="fill:#84bc35;fill-opacity:1;fill-rule:evenodd;stroke:#000000;stroke-width:1.41278374px;stroke-linecap:butt;stroke-linejoin:miter;stroke-opacity:1"
       d="M 30.424117,14.789156 A 15.95881,16.557733 0 0 0 14.466746,31.346542 15.95881,16.557733 0 0 0 30.424117,47.903929 15.95881,16.557733 0 0 0 46.384411,31.346542 15.95881,16.557733 0 0 0 30.424117,14.789156 Z m 0.05258,8.706184 c 6.187917,0 6.662781,3.305221 6.662781,3.305221 l 0,4.191479 -9.709373,0.08081 c 0,3.06267 0.760224,2.416778 3.616187,2.57797 2.855959,0.161192 2.570471,-1.451901 2.570471,-1.451901 l 3.71258,-0.08081 c 0,0 0.09573,0.08082 -0.189865,2.095741 -0.285591,2.014909 -4.1887,2.338159 -4.1887,2.338159 0,0 -3.521354,0.07976 -7.138901,-0.323226 -3.617548,-0.40298 -2.572207,-7.01063 -2.477,-8.541964 0.0952,-1.531336 0.953903,-4.191479 7.14182,-4.191479 z m 0.09348,2.820384 c -3.236752,0.08059 -2.949673,1.37142 -3.140064,2.499771 l 5.996795,0 c 0,0 0.380026,-2.580367 -2.856731,-2.499771 z"
       id="path4292-3" />
    <path
       style="fill:#84bc35;fill-opacity:1;fill-rule:evenodd;stroke:#000000;stroke-width:1.33100009px;stroke-linecap:butt;stroke-linejoin:miter;stroke-opacity:1"
       d="M 23.837465,49.913045 18.53275,56.757837 C 18.505465,56.716913 2.1935074,50.371906 4.1586816,29.720905 6.3127968,7.084427 29.313299,4.9085277 29.313299,4.9085277 l 2.566796,0.3422398 0.513362,-3.251277 7.015913,7.8715121 -7.871513,2.0534384 -0.17112,-2.5667974 C 24.008584,9.5287618 16.410147,15.039735 12.543556,24.245069 10.83811,28.305282 5.8698809,40.330333 23.837465,49.913045 Z"
       id="path4343"
       inkscape:connector-curvature="0"
       sodipodi:nodetypes="ccsscccccsc" />
    <path
       style="fill:#004b80;fill-opacity:1;fill-rule:evenodd;stroke:#000000;stroke-width:1.33100009px;stroke-linecap:butt;stroke-linejoin:miter;stroke-opacity:1"
       d="m 38.92087,14.314731 5.304715,-6.8447919 c 0.02729,0.040929 16.339243,6.3859309 14.374068,27.0369319 -2.154114,22.63648 -25.154617,24.812378 -25.154617,24.812378 l -2.566796,-0.342239 -0.513362,3.251276 -7.015913,-7.871512 7.871513,-2.053439 0.17112,2.566798 C 38.749751,54.699014 46.348188,49.188041 50.214779,39.982707 51.920225,35.922494 56.888453,23.897444 38.92087,14.314731 Z"
       id="path4343-5"
       inkscape:connector-curvature="0"
       sodipodi:nodetypes="ccsscccccsc" />
  </g>
</svg>
